<svg xmlns="http://www.w3.org/2000/svg" viewBox="0 0 1000 1000">
  <defs>
    <pattern id="grid" width="125" height="125" patternUnits="userSpaceOnUse">
      <path d="M125 0H0V125" fill="none" stroke="#101011" stroke-opacity=".14" stroke-width="2" />
    </pattern>
  </defs>

  <rect width="1000" height="1000" fill="var(--cover-background, #fa500e)" />
  <rect width="1000" height="1000" fill="url(#grid)" />

  <g fill="#101011" text-anchor="middle">
    <text x="500" y="92" font-family="ui-monospace, SFMono-Regular, Menlo, Monaco, Consolas, monospace" font-size="22" font-weight="700" letter-spacing="7">ML / CASE 01</text>
    <text x="500" y="188" font-family="Inter, Arial, sans-serif" font-size="112" font-weight="900" letter-spacing="-7">PURELLM</text>
    <text x="500" y="234" font-family="ui-monospace, SFMono-Regular, Menlo, Monaco, Consolas, monospace" font-size="19" font-weight="700" letter-spacing="4">FROM FIRST PRINCIPLES TO INFERENCE</text>
  </g>

  <g stroke="#101011" stroke-width="5">
    <rect x="35" y="410" width="140" height="160" fill="none" />
    <rect x="220" y="410" width="140" height="160" fill="none" />
    <rect x="405" y="390" width="190" height="200" fill="#101011" />
    <rect x="640" y="410" width="140" height="160" fill="none" />
    <rect x="825" y="410" width="140" height="160" fill="var(--pixel-0, #c5001b)" />
  </g>

  <g fill="#101011" font-family="ui-monospace, SFMono-Regular, Menlo, Monaco, Consolas, monospace" font-weight="700">
    <text x="55" y="447" font-size="21">01</text>
    <text x="55" y="530" font-size="23">TOKENS</text>
    <text x="240" y="447" font-size="21">02</text>
    <text x="240" y="530" font-size="23">EMBED</text>
    <text x="660" y="447" font-size="21">04</text>
    <text x="660" y="530" font-size="23">LOGITS</text>
  </g>

  <g fill="#f8f8f6" font-family="ui-monospace, SFMono-Regular, Menlo, Monaco, Consolas, monospace" font-weight="700">
    <text x="430" y="430" font-size="21">N×</text>
    <text x="430" y="486" font-size="22">TRANSFORMER</text>
    <rect x="430" y="515" width="65" height="35" fill="var(--cover-background, #fa500e)" stroke="none" />
    <rect x="505" y="515" width="65" height="35" fill="var(--cover-background, #fa500e)" stroke="none" />
    <text x="462" y="540" font-size="15" text-anchor="middle">ATTN</text>
    <text x="537" y="540" font-size="15" text-anchor="middle">MLP</text>
    <text x="845" y="447" font-size="21">05</text>
    <text x="845" y="530" font-size="23">API</text>
  </g>

  <g fill="#101011">
    <rect x="185" y="482" width="9" height="9" />
    <rect x="198" y="482" width="9" height="9" />
    <rect x="370" y="482" width="9" height="9" />
    <rect x="383" y="482" width="9" height="9" />
    <rect x="605" y="482" width="9" height="9" />
    <rect x="618" y="482" width="9" height="9" />
    <rect x="790" y="482" width="9" height="9" />
    <rect x="803" y="482" width="9" height="9" />
  </g>

  <path d="M0 862H1000" stroke="#101011" stroke-width="5" />
  <g fill="#101011" font-family="ui-monospace, SFMono-Regular, Menlo, Monaco, Consolas, monospace" font-size="20" font-weight="700" letter-spacing="2">
    <text x="35" y="915">NUMPY / PYTORCH</text>
    <text x="965" y="915" text-anchor="end">FASTAPI · POST /GENERATE</text>
  </g>
</svg>
